<svg width="43" height="41" viewBox="0 0 43 41" fill="none" xmlns="http://www.w3.org/2000/svg">
<path d="M32.3043 32.8246C34.7056 32.8246 36.6522 30.8609 36.6522 28.4386C36.6522 26.0163 34.7056 24.0526 32.3043 24.0526C29.9031 24.0526 27.9565 26.0163 27.9565 28.4386C27.9565 30.8609 29.9031 32.8246 32.3043 32.8246ZM32.3043 32.8246C28.4624 32.8246 25.3478 35.9664 25.3478 39.8421H39.2609C39.2609 35.9664 36.1463 32.8246 32.3043 32.8246ZM16.6522 10.8947C16.6522 15.2549 13.1483 18.7895 8.82609 18.7895C4.50386 18.7895 1 15.2549 1 10.8947C1 6.53459 4.50386 3 8.82609 3C13.1483 3 16.6522 6.53459 16.6522 10.8947ZM1 24.0526H16.6522V39.8421H1V24.0526ZM32.3043 3L41 18.7895H23.6087L32.3043 3Z" stroke="#333333" stroke-width="2" stroke-linecap="square"/>
</svg>
